<svg id="Layer_1" data-name="Layer 1" xmlns="http://www.w3.org/2000/svg" viewBox="0 0 196.39 120.11"><defs><style>.cls-1{fill:#ffe1c0;}.cls-2{fill:#231f20;}</style></defs><title>cjf_logo</title><path class="cls-1" d="M174.71,96.41a20,20,0,0,0-.4-2.76,18.64,18.64,0,0,1-.51-2.77c-.07-.48-.33-.88-.38-1.39a7.11,7.11,0,0,0-.7-2.81,3.34,3.34,0,0,0-1.92-1.8,1,1,0,0,0-1.12.23,1.46,1.46,0,0,0-.3.71q-.3,1-.58,2.07a1.71,1.71,0,0,0-.08.56,6.75,6.75,0,0,1-.19,3.4c-.26.6-.55,1.2-.82,1.8-.42.92-1.21,1.61-1.61,2.55a2.85,2.85,0,0,1-.43.86,10.3,10.3,0,0,0-.85,1.33q-.56.78-1.11,1.57a16.64,16.64,0,0,1-2.21,2.31,14.62,14.62,0,0,1-2.75,2.06c-.13.08-.24.13-.35,0s.07-.19.1-.3c.12-.53.66-.88.72-1.42a4,4,0,0,1,1.08-2.24,6.41,6.41,0,0,0,1.41-2.53c0-.12.1-.29,0-.38-.47-.76-.61-1.7-1.53-2.2a1.26,1.26,0,0,0-1.76.5,9.62,9.62,0,0,1-.69,1.54c-.49.7-1,1.39-1.57,2.05a13.73,13.73,0,0,0-1.89,2.91,1.07,1.07,0,0,1-.28.41c-.81.57-1.12,1.52-1.76,2.22a8.55,8.55,0,0,0-1.1,1.65c-.32.57-.86.88-1.21,1.39-.23.34-.11.76-.4,1-.92.84-1.68,1.92-3.07,2.06a.33.33,0,0,1-.3-.11c-.08-.09-.11-.23,0-.3a.8.8,0,0,0,.22-.88,1.6,1.6,0,0,1,.25-1.12c.42-.84.59-1.78,1-2.61.27-.52.37-1.14.65-1.65.47-.85.83-1.74,1.23-2.61.11-.25.13-.52.25-.78a21.32,21.32,0,0,0,.94-2.54c.24-.7.5-1.42.77-2.11s.38-1.59.72-2.35a4.39,4.39,0,0,0,.4-1,6.86,6.86,0,0,1,.6-2.2,2.39,2.39,0,0,0,.32-.58,19.76,19.76,0,0,1,.59-2.53,3.13,3.13,0,0,0,.34-.82,7.31,7.31,0,0,1,.34-1.69,2.53,2.53,0,0,1,.54-1.14,1.71,1.71,0,0,0,.49-1.54c-.17-1-.28-2.12-1.42-2.7a1.38,1.38,0,0,0-1.77.7c-.21.87-.44,1.72-.67,2.58-.14.51-.33,1-.43,1.51a4,4,0,0,1-.26,1,11,11,0,0,0-.4,1.26c-.34.86-.72,1.7-1.06,2.56a9.7,9.7,0,0,0-.85,2.14,2.45,2.45,0,0,1-.23.81,26.19,26.19,0,0,0-1.4,3.22c-.18.47-.38.52-.73.22-.17-.14-.41-.28-.56-.15a4.12,4.12,0,0,1-1.33.59c-1,.4-2,.45-3,.93s-2.31.59-3.42,1a35.42,35.42,0,0,0-3.54,1c-.89.44-1.93.57-2.88.93-.37.14-.54-.06-.55-.46s.43-.91.44-1.47a15.78,15.78,0,0,1,.28-1.9,12,12,0,0,0,.37-2.68,23.3,23.3,0,0,1,.45-4.17c0-.2.34-.28.26-.57a5,5,0,0,1,.08-2.57c.11-.44-.2-1,.21-1.36,0,0,0-.08,0-.11a4,4,0,0,1-.14-2.07,4.43,4.43,0,0,0,0-.91,10.72,10.72,0,0,1-.07-2.4,24.66,24.66,0,0,0,0-4.57,1.75,1.75,0,0,0-1-1.18,1.25,1.25,0,0,0-1.41.69,6,6,0,0,0-.77,2.77c0,1.47-.57,2.9-.55,4.4a.26.26,0,0,1,0,.11,4.45,4.45,0,0,0-.35,2.57.28.28,0,0,1,0,.22c-.37.31-.25.76-.32,1.16s0,.8-.12,1.18a24.39,24.39,0,0,0-.63,2.71c0,.42-.07.85-.12,1.28a24.31,24.31,0,0,0-.52,3c0,.94-.43,1.82-.5,2.77s-.59,1.76-.59,2.68c0,.62-.4,1.12-.36,1.73,0,.13-.1.18-.21.24a8,8,0,0,0-.88.53,8.49,8.49,0,0,1-1.93.8,13.37,13.37,0,0,1-2.6,1.23c-1.21.24-2.18,1.11-3.29,1.62a17.63,17.63,0,0,0-2.45,1.24,13.82,13.82,0,0,1-2.73,1c-.39.15-1,.35-1,.65-.17.52-.54,1-.31,1.69.32,1,.57,1.33,1.49,1s2-.22,2.83-1c.05-.05.19,0,.27,0a17,17,0,0,0,2.9-1.05,4,4,0,0,1,1.54-.74,3.12,3.12,0,0,0,1.54-.67c1.07-.89,2.47-.93,3.63-1.55h.05c.33,0,.45.2.32.41-.29.45-.15,1-.27,1.42,0,.16,0,.33-.13.48a1.31,1.31,0,0,0-.23,1.12,3.27,3.27,0,0,1-.12,1.56,22.71,22.71,0,0,0-.64,3.15c-.15.75-.6,1.37-.73,2.13a5.62,5.62,0,0,1-.63,1.28,17,17,0,0,0-1,2.3c-.34,1.07-1.21,1.85-1.41,3-.11.58-.65,1-.92,1.46-.36.68-.43,1.53-1.11,2,0,0,0,.1-.05.16a16.71,16.71,0,0,1-1.52,2.75,9.84,9.84,0,0,1-1.42,1.94,13.16,13.16,0,0,1-1.58,2,8.77,8.77,0,0,0-1.43,1.6,8,8,0,0,1-1.66,1.61,13.76,13.76,0,0,0-1.23.78,6.6,6.6,0,0,1-2,1.18,1.52,1.52,0,0,1-2.17-1.47.65.65,0,0,1,.1-.31,4.2,4.2,0,0,0,.62-1.46,4.25,4.25,0,0,1,.33-1.16,7.65,7.65,0,0,0,1.14-3.28c0-.8.39-1.58.46-2.41a2.69,2.69,0,0,0-2.21-2.78,1.18,1.18,0,0,0-.38,0c-.43.1-.52.51-.76.77a8.47,8.47,0,0,0-1.4,2.08c-.52,1-.5,2.17-1,3.17a3.9,3.9,0,0,0-.35,1.56,16.37,16.37,0,0,0-.09,2,4,4,0,0,1-.4,2.13c-.59,1.16-1.57,2.08-2.12,3.26-.18.4-.53.63-.76,1a9.9,9.9,0,0,1-1.6,2.11c-.6.54-1.16,1.12-1.71,1.72s-1.13,1.21-1.7,1.81a20.87,20.87,0,0,1-2.48,2,1.77,1.77,0,0,1-2.5-.12,1.87,1.87,0,0,1-.63-2.11c.09-.24.27-.42.37-.67a11.29,11.29,0,0,1,.55-1.49,6.6,6.6,0,0,0,.71-1.8,1,1,0,0,0-.32-1.24c-.16-.11-.12-.26-.11-.41.05-.53-.3-.8-.68-1-.22-.14-.47-.22-.69-.35a1.19,1.19,0,0,0-1.85.55,24.68,24.68,0,0,0-.31,2.72,2.45,2.45,0,0,1-.39,1.33,6,6,0,0,0-.91,1.87,9.24,9.24,0,0,0-1.13,3.17.7.7,0,0,1-.14.24c-.59.87-1.13,1.78-1.79,2.59a4,4,0,0,1-.82.92,7.67,7.67,0,0,0-2.25,2.21c-.2.31-.43.73-.78.78s-.79.21-1.2.28c-.83.14-.85.15-.73-.68a.63.63,0,0,1,.26-.46c.21-.16.49-.41.5-.64,0-.67.55-1,.92-1.46a1.54,1.54,0,0,0,.24-.39c.26-.58.59-1.14.89-1.68.21-.36.49-.78.75-1.16.53-.79,1-1.63,1.47-2.46a21.5,21.5,0,0,0,1.75-3.06.67.67,0,0,1,.86-.44c.4.1.83.18,1.15-.2a2.88,2.88,0,0,0,.76-1.82c.06-.85-.82-1.27-.59-2.06-.55-.41-.81-1.12-1.4-1.42-.26-.13-.46-.32-.7-.46-.42-.24-.83-.73-1.4-.4-.39.23-.88.36-1.07.84-.31.79-1.2,1-1.6,1.76s-.77,1.26-1.15,1.88A12.91,12.91,0,0,0,75.14,145c-.24.78-.49,1.57-.81,2.32-.18.44-.1.94-.29,1.32-.58,1.17-.78,2.46-1.27,3.66a9.77,9.77,0,0,1-1.39,2.34c-.8,1-1.85,1.83-2.66,2.86q-.66.83-1.37,1.63a20.06,20.06,0,0,1-1.55,1.72,11.27,11.27,0,0,0-2.3,2.1,4.57,4.57,0,0,1-.69.79c-.42.41-1,.6-1.4,1a52.51,52.51,0,0,1-4.74,3.52,35.22,35.22,0,0,1-4,2.24,7.81,7.81,0,0,1-2.37,1,1.61,1.61,0,0,0-.66.32,2.72,2.72,0,0,1-1.08.52c-.59.13-1.17.35-1.75.51a10.67,10.67,0,0,1-2.11.53,20.85,20.85,0,0,0-2.21.25,6.07,6.07,0,0,1-2.05.13c-1.1-.2-2.21-.28-3.32-.41-.3,0-.68.05-.87,0a19.91,19.91,0,0,1-2.35-1c-.4-.27-.92-.3-1.25-.71a16.51,16.51,0,0,1-1.35-2,12,12,0,0,1-.89-2.85,13.16,13.16,0,0,1-.06-3.58,7.23,7.23,0,0,1,.15-1.46,19.27,19.27,0,0,1,.36-2.21c.09-.29.23-.55.33-.82.34-.87.2-1.84.63-2.69a17.69,17.69,0,0,0,.63-2.24,17,17,0,0,1,.59-1.84,5.86,5.86,0,0,0,.25-1.25,13.07,13.07,0,0,1,.83-2,1.71,1.71,0,0,0,.17-.6,11.76,11.76,0,0,1,1-2.95c.24-.72.52-1.43.79-2.14s.49-1.32.74-2,.48-1.25.78-1.86.37-1.4.62-2.08c.38-1,1.09-2,1.45-3s.84-1.81,1.21-2.73a5.89,5.89,0,0,1,.92-1.66,14.62,14.62,0,0,0,1-1.8,11.82,11.82,0,0,0,1-1.78,4.82,4.82,0,0,1,.57-1.22c.46-.57.8-1.24,1.27-1.8.29-.34.27-.79.57-1.11a18.62,18.62,0,0,0,2.37-3.47c.51-.88,1.15-1.68,1.68-2.55.74-1.2,1.77-2.24,2.64-3.38a8.19,8.19,0,0,1,1.45-1.87c.16-.12.39-.2.47-.36A4.65,4.65,0,0,1,55.79,109a38.24,38.24,0,0,1,3.52-3.4c.93-.64,2.07-1,2.74-2.05.28-.41.83-.49,1.15-.85a3.17,3.17,0,0,1,1.3-.75,5.83,5.83,0,0,0,1.5-.72,1.31,1.31,0,0,1,.81-.3,8.16,8.16,0,0,1,2.86.54,6.56,6.56,0,0,0,1.7.38c1,.1,1.22-.15,1.1-1.2,0-.42-.38-.69-.45-1.07-.21-1.13-1.19-1.5-2-1.84a5.27,5.27,0,0,0-2.78-.11c-.88.16-1.71.5-2.57.72a4.3,4.3,0,0,0-1.46.4,40.36,40.36,0,0,0-3.83,2.52c-.63.57-1.42.88-2,1.47-1.15,1.11-2.39,2.12-3.63,3.14-.3.24-.37.68-.64.83-.64.39-.93,1.05-1.4,1.56s-.93,1.22-1.49,1.76c-.32.31-.8.51-1,.92a17.74,17.74,0,0,1-1.67,2.59c-.38.68-1,1.16-1.37,1.86a2.9,2.9,0,0,1-.92,1.35c-.3.18-.41.55-.61.83-.37.55-.45,1.23-.88,1.75-.58.71-1.11,1.47-1.63,2.23-.27.39-.43.84-.67,1.25a7.85,7.85,0,0,0-1.08,1.72c-.31,1.23-1.17,2.14-1.66,3.26a3.41,3.41,0,0,1-.46,1.07c-.18.21-.44.35-.54.63a19.61,19.61,0,0,0-1,2.27,13,13,0,0,1-.79,1.74c-.21.51-.31,1.08-.56,1.53a31.23,31.23,0,0,0-1.58,3.32c-.37,1-.55,2-.92,3s-.64,1.69-1,2.52a5.91,5.91,0,0,1-.32,1.09,5.59,5.59,0,0,0-.75,1.66,18.1,18.1,0,0,1-1,3.17c-.18.43-.19.92-.37,1.32a18.78,18.78,0,0,0-1,2.92c-.06.24,0,.52-.14.71a10.16,10.16,0,0,0-.8,3.23,16.59,16.59,0,0,0-.57,2.42c-.06.8-.28,1.51-.28,2.31,0,1.08,0,2.17,0,3.24s.49,1.81.52,2.74a22.45,22.45,0,0,0,.67,2.42.53.53,0,0,0,.46.49.42.42,0,0,1,.36.54,1.44,1.44,0,0,0,.46,1.09,7.43,7.43,0,0,0,1.26,1c.21.18.11.57.49.6s.5.3.74.46c.46.3.79.88,1.48.65a.39.39,0,0,1,.32.06,6,6,0,0,0,3,.85,16.43,16.43,0,0,0,5.21,0,6.32,6.32,0,0,1,1.73-.28,3.47,3.47,0,0,0,1.53-.16c1.57-.54,3.26-.57,4.78-1.35,1-.52,2.18-.69,3.24-1.19,1.55-.71,3-1.51,4.53-2.34a27.49,27.49,0,0,0,3.31-2c1.11-.84,2.43-1.36,3.37-2.45a3.72,3.72,0,0,1,.83-.83,11.3,11.3,0,0,0,2.82-2.56,7.06,7.06,0,0,1,1.44-1.35,3.8,3.8,0,0,0,1-.85c.64-.83,1.29-1.65,1.94-2.47a.37.37,0,0,1,.41-.12c.14,0,.17.14.22.28.12.31.1.75.41.91a3.37,3.37,0,0,0,2.38.37c1-.23,1.79-.91,2.75-1.23a5.39,5.39,0,0,0,2.37-1.41c.78-.9,1.82-1.6,2.31-2.76a.74.74,0,0,1,.83-.5.35.35,0,0,0,.26,0,2.91,2.91,0,0,1,1.94-.61,10.5,10.5,0,0,1,2.5.13,2.19,2.19,0,0,0,1.08-.17c.54-.21,1-.55,1.49-.79a8.44,8.44,0,0,0,2.34-1.61c.83-.84,1.78-1.54,2.62-2.35s1.26-1.49,2-2.12c.48-.41.64-1.12,1.15-1.45a7.76,7.76,0,0,0,1.57-1.86,7.38,7.38,0,0,0,1.35-2.28.62.62,0,0,1,.71-.45c.54.19,1.16.32,1.39,1,.09.26.27.57.55.6a5.83,5.83,0,0,0,2.69-.17c.75-.28,1.49-.61,2.26-.84a5.7,5.7,0,0,0,2.07-1.39,15.5,15.5,0,0,0,2.39-2.37c.39-.53,1-.84,1.39-1.4a38.64,38.64,0,0,1,2.33-3.2,15.61,15.61,0,0,0,1.86-2.62c.45-.88,1-1.71,1.38-2.63.13-.3.14-.73.36-.9a2.9,2.9,0,0,0,1.08-2.06,4,4,0,0,1,.56,2.43,2.8,2.8,0,0,0,.27,1.23,2.8,2.8,0,0,1,.38.82,7.75,7.75,0,0,0,.69,2.38c.28.59.64,1.14.88,1.74a2.84,2.84,0,0,0,2.58,1.86,1.09,1.09,0,0,0,.81-.32c.48-.45.79-1.1,1.3-1.45a13,13,0,0,0,2.29-2.53,16.4,16.4,0,0,0,1.4-1.82c.12-.19.36-.31.49-.49.82-1.15,1.65-2.3,2.43-3.48.21-.32.61-.4.75-.76a10.68,10.68,0,0,1,.64-1.17,12.49,12.49,0,0,1,1.32-1.91,10.1,10.1,0,0,0,.84-1.71,19.62,19.62,0,0,0,1.16-1.75,5.41,5.41,0,0,1,.43-1,10.09,10.09,0,0,0,1.86-2.7.34.34,0,0,1,.2-.18c.15,0,.19.09.21.2a1.77,1.77,0,0,0,.56.92c.25.28.4.67.7.87a1.47,1.47,0,0,0,1.86-.22c.08-.07.21-.1.29-.18.5-.46,1.24-.6,1.63-1.15s1.07-.71,1.35-1.29a2.46,2.46,0,0,1,1-1,.93.93,0,0,0,.37-.33,13.86,13.86,0,0,1,1.05-1.36,6.13,6.13,0,0,0,1.27-1.85c.07-.24.06-.55.39-.61s.5.24.66.45.18.18.26.28a1.64,1.64,0,0,0,1.85.7,29,29,0,0,0,3.09-1.39,8.18,8.18,0,0,0,2.31-1.79c.53-.51,1.13-1,1.61-1.53a13.63,13.63,0,0,0,1.93-2.3,26.48,26.48,0,0,0,1.86-2.78c.35-.86,1-1.61,1.37-2.43.54-1.22,1.47-2.22,1.83-3.51a.21.21,0,0,1,.41,0,8.84,8.84,0,0,0,.49,1.33c.15.39-.17.63-.07,1a11,11,0,0,1,.46,2.89c0,1.51-.11,3-.1,4.53a17.18,17.18,0,0,1-.27,2.52c-.07.45.2.85.15,1.28q-.35,3.37-.72,6.74a11.49,11.49,0,0,0-.41,2.21,8.27,8.27,0,0,1-.28,1.92,49.7,49.7,0,0,0-.81,5,16.65,16.65,0,0,1-.59,3.11c-.35,1.49-.61,3-1.11,4.46-.29.84-.57,1.69-.93,2.47-.44,1-.68,2-1.22,2.92a4.47,4.47,0,0,1-2.06,1.72c-1,.53-2.17.2-3.24.05a7.63,7.63,0,0,1-3.14-1.32,33.5,33.5,0,0,1-4.17-2.85c-1.14-1-2.31-2.05-3.41-3.14-.23-.22-.44-.52-.72-.36a1.11,1.11,0,0,0-.63.9,7.93,7.93,0,0,0,0,.89c.17,1.2.4,2.37,1.58,3.05a.41.41,0,0,1,.15.16,2.17,2.17,0,0,0,1.27,1.08.65.65,0,0,1,.46.45c0,.12,0,.23.18.32,1.1.76,2.2,1.5,3.25,2.31.39.3.91.41,1.21.75a3.34,3.34,0,0,0,1.3.69,9.59,9.59,0,0,0,1.26.5c.48.14.87.57,1.4.46a1.29,1.29,0,0,1,.72,0,6.08,6.08,0,0,0,6.38-2.23,8,8,0,0,0,1-1.65c.15-.5.65-.87.67-1.38a3.17,3.17,0,0,1,.4-1.26c.25-.54.32-1.12.54-1.66s.11-.89.25-1.35a20.16,20.16,0,0,0,.63-3.56,19.55,19.55,0,0,0,.48-3.06.28.28,0,0,1,0-.16,4.82,4.82,0,0,0,.53-2.1c.33-2,.51-4.11.78-6.17a3.76,3.76,0,0,1,0-.89,8.21,8.21,0,0,0,.58-2.38c0-1,.19-1.95.25-2.92,0-.47-.19-1,0-1.39a3.15,3.15,0,0,0,.19-1.58c0-.15,0-.3,0-.44,0-.74.11-1.49.14-2.23,0-1.07-.06-2.15.08-3.21a9.17,9.17,0,0,0,.07-2.7C174.71,98.37,174.87,97.4,174.71,96.41Zm-29.14,4.29a4.4,4.4,0,0,0-.37,1.31,15.11,15.11,0,0,0-.77,2.76,9,9,0,0,1-.5,1.76c-.16.49-.33,1-.44,1.48a6.71,6.71,0,0,1-1,2.14,8.52,8.52,0,0,0-.67,1.4,3.62,3.62,0,0,1-.6.86c-.77,1-1,2.21-1.8,3.17a11.14,11.14,0,0,0-1.38,2.34,9.22,9.22,0,0,1-.8,1.11c-.75,1.12-1.43,2.27-2.21,3.37a20.13,20.13,0,0,1-1.92,2.66,7.5,7.5,0,0,0-1.53,2c-.2.43-.72.72-1.05,1.13-.61.75-1.19,1.53-1.78,2.3a9.6,9.6,0,0,1-1.44,1.3c-.55-.53-.52-1.25-.68-1.88a10,10,0,0,1-.59-1.79c0-.09-.06-.18-.06-.27,0-1.65-.21-3.28-.1-4.94a63.42,63.42,0,0,1,.61-6.39,9.13,9.13,0,0,1,.73-2.17,4.54,4.54,0,0,0,.44-1.62,4.6,4.6,0,0,1,.72-2,2.64,2.64,0,0,0,.44-1.32c0-.33.24-.57.35-.86a16.59,16.59,0,0,0,.68-2.37c.12-.6.13-1.45.93-1.86.24-.13.43-.5.74-.71a10.33,10.33,0,0,1,3.09-1c.67-.21,1.44-.14,2-.65a.45.45,0,0,1,.37-.1,11.49,11.49,0,0,0,2.21-.29,15.64,15.64,0,0,0,2.64-.67c.87-.22,1.75-.39,2.63-.53.23,0,.44-.21.67-.24S145.82,100.3,145.57,100.7Z" transform="translate(-26.64 -56.93)"/><path class="cls-1" d="M223,57.76c-.41-.06-.51-.44-.74-.68-.07-.08-.13-.19-.28-.13a3.35,3.35,0,0,0-1.37.77l-.86,1.11c-.44.57-.74,1.25-1.18,1.82A15.3,15.3,0,0,0,217,63.33c-.51,1.06-1.3,1.94-1.76,3-.19.44-.63.74-.86,1.2-.32.64-.8,1.21-1.13,1.84-.63,1.21-1.39,2.34-2.07,3.51a16.33,16.33,0,0,1-2,2.71,16.82,16.82,0,0,1-2.48,2.85c-.12.09-.26.14-.33.29a5.15,5.15,0,0,1-1.28,1.58,21.41,21.41,0,0,1-2.68,2.18,18.12,18.12,0,0,0-1.71,1.53,8.29,8.29,0,0,1-3.22,1.82c-.22.07-.43.11-.46-.31a5.26,5.26,0,0,0-.32-1.44,3.77,3.77,0,0,0-1-1.78c-.5-.43-.81-1.13-1.37-1.6a1.36,1.36,0,0,0-1.77,0,7.14,7.14,0,0,1-1.68,1.32c-.57.28-.81.85-1.33,1.14-.31.17-.18.67-.38.91a4.43,4.43,0,0,0-.69,1.82,5.91,5.91,0,0,0-.49,1.56,4.45,4.45,0,0,0-.34-.45c-.65-.62-.9-1.67-2-1.81a1.15,1.15,0,0,0-1,.13c-.35.28-.67.59-1,.86a5.32,5.32,0,0,0-1.64,2,2.42,2.42,0,0,1-.33.69,13.5,13.5,0,0,0-2,2.46c-.38.66-.82,1.29-1.26,1.91a7.18,7.18,0,0,0-.47,1.26,34,34,0,0,1-2,3.06c-.32.52-.78,1.07-.44,1.69s.12,1.61,1,2c0,0,0,.17.06.26a1.05,1.05,0,0,0,1.14.72,1.77,1.77,0,0,0,1.74-1.75,1.39,1.39,0,0,1,.09-.33c.31-.75.48-1.55.79-2.32s.81-1.34,1.05-2.08a8.77,8.77,0,0,1,.69-1.14,5.78,5.78,0,0,1,1.23-1.89,2.56,2.56,0,0,0,.83-1.11c.2-.67.87-.77,1.18-1.27.15.4-.13.82.11,1.09s.17.54.18.83c0,1-.42,2,0,3,.31.8.34,1.62,1.25,2.09.37.19.66.26.94.08a3.16,3.16,0,0,0,.81-.81,9.26,9.26,0,0,0,1.12-2.54,8.06,8.06,0,0,0,.79-2.59,7.76,7.76,0,0,1,.68-2.25c.11-.33,0-.69.21-.94.65-.87.78-2,1.75-2.75.37-.27.54,0,.55.06,0,.33.32.58.22,1a1.74,1.74,0,0,0,.12,1.16c.35.79.28,1.81,1.3,2.2,0,0,0,.11,0,.16A1.73,1.73,0,0,0,197,91c.55-.21,1-.58,1.57-.8s.84-.63,1.34-.84a7.34,7.34,0,0,0,1-.53c.66-.42,1.23-1,1.86-1.41a19,19,0,0,0,2.71-2.12c.93-1,1.94-1.84,2.9-2.77.64-.62,1.08-1.37,1.67-2s.93-1.43,1.53-2c1-1,1.41-2.42,2.42-3.42.53-.52.68-1.29,1.14-1.86a4.49,4.49,0,0,0,1-1.64,8.5,8.5,0,0,1,1.19-2.18c.37-.59.75-1.22,1.12-1.82a8.71,8.71,0,0,0,.64-1.06c.3-.69.77-1.29,1-2s.85-1.19,1-1.94c.09-.41.38-.73.48-1.18a3.47,3.47,0,0,1,.77-1.1A4.46,4.46,0,0,0,223,58C223,57.89,223,57.76,223,57.76Z" transform="translate(-26.64 -56.93)"/><path class="cls-1" d="M97.76,98.7a1.76,1.76,0,0,0,1.7,1.42,1.55,1.55,0,0,0,1.4-1.48.65.65,0,0,1,.24-.68,11.52,11.52,0,0,0,1.5-1.52,4.35,4.35,0,0,0,1.15-1.5,1.22,1.22,0,0,1,.46-.79c.2-.12.22-.38.14-.41-.35-.15-.62-.58-1-.45a25.54,25.54,0,0,0-3.59,1.55c-.37.19-.68.47-1,.66a5.3,5.3,0,0,0-1.27,1,1.11,1.11,0,0,0-.23,1.3C97.35,98.11,97.66,98.34,97.76,98.7Z" transform="translate(-26.64 -56.93)"/><line class="cls-2" x1="79.1" y1="109.5" x2="118.25" y2="109.5"/><polygon class="cls-2" points="118.71 109.81 79.56 109.81 79.1 109.2 118.25 109.2 118.71 109.81"/><path class="cls-2" d="M66,117.54a3.3,3.3,0,0,1-5.36-2.47A3.28,3.28,0,0,1,64,111.66a2.78,2.78,0,0,1,1.83.61l.15-.55h.42l.09,2h-.43a1.84,1.84,0,0,0-1.83-1.61c-1.5,0-1.93,1.6-1.93,2.82s.45,2.78,2,2.8c1.11,0,1.7-.83,1.88-1.85h.39v2.18h-.39Z" transform="translate(-26.64 -56.93)"/><path class="cls-2" d="M72.24,116.46a2.68,2.68,0,0,0-.23.81c0,.47.44.5.8.53v.35l-1.22,0-1.1,0v-.35c.79,0,1.07-.94,1.32-1.54l1.91-4.6h.46l2,5a3.47,3.47,0,0,0,.49.94,1.2,1.2,0,0,0,.66.23v.35l-1.74,0-1.52,0v-.35c.29,0,.8,0,.8-.44a2.52,2.52,0,0,0-.18-.64l-.2-.55H72.35Zm2.06-.76-.85-2.22-.91,2.22Z" transform="translate(-26.64 -56.93)"/><path class="cls-2" d="M82,113.34c0-.8,0-1.26-.91-1.24v-.35l1.59,0,1.71,0v.35c-.94,0-.91.44-.91,1.24v3.29c0,.79,0,1.2.91,1.18v.35l-1.7,0-1.6,0v-.35c.94,0,.91-.43.91-1.22Z" transform="translate(-26.64 -56.93)"/><path class="cls-2" d="M94.87,113.59h-.42A1.36,1.36,0,0,0,93,112.23c-.31,0-.44,0-.53.07s0,.32,0,.64v3.65c0,.86,0,1.25,1,1.22v.35l-1.71,0-1.71,0v-.35c1,0,1-.36,1-1.22v-3.65a1.41,1.41,0,0,0-.06-.6c-.07-.08-.25-.09-.52-.11-.95-.08-1.31.51-1.46,1.35h-.42l.06-1.84h6.23Z" transform="translate(-26.64 -56.93)"/><path class="cls-2" d="M99,117.8c.93,0,.91-.43.91-1.22v-3.27c0-.79,0-1.25-.91-1.22v-.35l1.53,0,1.78,0v.35c-.93,0-.92.43-.92,1.22v2.81c0,1,0,1.58,1.16,1.58s1.57-.31,1.84-1.4h.42l-.07,1.85-4.09,0-1.64,0Z" transform="translate(-26.64 -56.93)"/><path class="cls-2" d="M112,116.59c0,.83,0,1.25.95,1.22v.35l-1.82,0-1.55,0v-.35c1,0,.92-.39.94-1.22v-.85l-1.67-3c-.26-.44-.31-.54-.81-.66v-.35l1.46,0,1.65,0v.35c-.26,0-.73,0-.73.42a2.66,2.66,0,0,0,.35.8l1,1.75.93-1.56a2.7,2.7,0,0,0,.37-.93c0-.42-.37-.48-.71-.48v-.35l1,0,1.14,0v.35c-.44,0-.61.32-.81.68L112,115.54Z" transform="translate(-26.64 -56.93)"/><path class="cls-2" d="M119.71,113.29v3c0,.73,0,1.49.93,1.53v.35l-1.17,0-1.1,0v-.35c.8-.08.86-.47.86-1.16v-3.89c-.31-.44-.44-.61-1-.66v-.35l.92,0,1.09,0,3.82,4.4v-2.57c0-.73,0-1.44-.92-1.48v-.35l1.1,0,1.16,0v.35c-.27,0-.58.09-.72.35a3.24,3.24,0,0,0-.15,1.19v4.65h-.47Z" transform="translate(-26.64 -56.93)"/><path class="cls-2" d="M136.11,111.75l1.46,0,1.84,0v.35c-.94,0-.91.44-.91,1.24v4.5a3.67,3.67,0,0,1-.35,2,2.06,2.06,0,0,1-1.78.84c-.59,0-1.58-.18-1.58-.95a.55.55,0,0,1,.55-.54c.78,0,.51,1,1.08,1s.51-.42.52-.75c0-.56,0-1.13.07-1.69v-4.4c0-.8,0-1.26-.91-1.24Z" transform="translate(-26.64 -56.93)"/><path class="cls-2" d="M143.6,117.8c.93,0,.91-.43.91-1.22v-3.27c0-.79,0-1.25-.91-1.22v-.35l1.64,0,3.55,0,.08,1.7h-.42c-.16-1-.72-1.26-1.64-1.26-.12,0-.73,0-.79.11a3.32,3.32,0,0,0,0,.55v1.79c.78,0,1.29-.15,1.32-1h.39c0,.44,0,.89,0,1.33s0,.8,0,1.2h-.39c-.18-.89-.44-1-1.32-1v1.13c0,.91,0,1.49,1.11,1.49s1.52-.33,1.76-1.42h.39c0,.37,0,.73,0,1.09s0,.51,0,.77l-4,0-1.64,0Z" transform="translate(-26.64 -56.93)"/><path class="cls-2" d="M154.9,113.29v3c0,.73,0,1.49.93,1.53v.35l-1.17,0-1.1,0v-.35c.8-.08.86-.47.86-1.16v-3.89c-.31-.44-.44-.61-1-.66v-.35l.92,0,1.09,0,3.82,4.4v-2.57c0-.73,0-1.44-.92-1.48v-.35l1.1,0,1.16,0v.35c-.27,0-.58.09-.72.35a3.24,3.24,0,0,0-.15,1.19v4.65h-.47Z" transform="translate(-26.64 -56.93)"/><path class="cls-2" d="M166.31,113.29v3c0,.73,0,1.49.93,1.53v.35l-1.17,0-1.1,0v-.35c.8-.08.86-.47.86-1.16v-3.89c-.31-.44-.44-.61-1-.66v-.35l.92,0,1.09,0,3.82,4.4v-2.57c0-.73,0-1.44-.92-1.48v-.35l1.1,0,1.16,0v.35c-.27,0-.58.09-.72.35a3.25,3.25,0,0,0-.14,1.19v4.65h-.47Z" transform="translate(-26.64 -56.93)"/><path class="cls-2" d="M176.28,117.8c.93,0,.91-.43.91-1.22v-3.27c0-.79,0-1.25-.91-1.22v-.35l1.64,0,3.55,0,.08,1.7h-.42c-.16-1-.72-1.26-1.64-1.26-.12,0-.73,0-.79.11a3.36,3.36,0,0,0,0,.55v1.79c.78,0,1.29-.15,1.32-1h.39c0,.44,0,.89,0,1.33s0,.8,0,1.2H180c-.18-.89-.44-1-1.32-1v1.13c0,.91,0,1.49,1.11,1.49s1.52-.33,1.76-1.42h.39c0,.37,0,.73,0,1.09s0,.51,0,.77l-4,0-1.64,0Z" transform="translate(-26.64 -56.93)"/><path class="cls-2" d="M191.71,116.61a9.35,9.35,0,0,0,.65.85,1,1,0,0,0,.62.34v.35l-1,0-1,0-1.37-1.94c-.32-.44-.73-.93-1-.91h-.15v1.28c0,.79,0,1.25.92,1.22v.35l-1.66,0-1.64,0v-.35c.93,0,.91-.43.91-1.22v-3.27c0-.79,0-1.25-.91-1.22v-.35l1.64,0,1.57,0a5.18,5.18,0,0,1,1.6.23,1.47,1.47,0,0,1,1,1.45,1.63,1.63,0,0,1-1.52,1.53Zm-2.81-1.76c.93,0,1.4-.36,1.4-1.31s-.37-1.34-1.28-1.34c-.11,0-.44,0-.46.11a9,9,0,0,0,0,.9v1.65Z" transform="translate(-26.64 -56.93)"/><path class="cls-2" d="M90,132.08h.28c.39,0,.64-.22.74-.8h.29c0,.33,0,.65,0,1s0,.62,0,.94H91c0-.45-.25-.76-.71-.78H90v1.07c0,.65,0,.94.73.91v.26l-1.28,0-1.23,0v-.26c.7,0,.68-.32.68-.91V131c0-.59,0-.94-.68-.91v-.26l1.23,0,2.69,0,.07,1.25h-.29c-.18-.83-.73-.91-1.46-.91-.51,0-.46,0-.46.51Z" transform="translate(-26.64 -56.93)"/><path class="cls-2" d="M95.43,132.27a2.7,2.7,0,1,1,2.68,2.47A2.5,2.5,0,0,1,95.43,132.27Zm1.25,0c0,.93.25,2.18,1.42,2.18s1.46-1.1,1.46-2.1-.25-2.18-1.46-2.18S96.69,131.3,96.69,132.23Z" transform="translate(-26.64 -56.93)"/><path class="cls-2" d="M104.18,129.86l1.14,0,1.35,0v.26c-.7,0-.7.33-.7.93v1.75c0,.92.22,1.47,1.25,1.47a1.22,1.22,0,0,0,1.39-1.34v-1.51a2.43,2.43,0,0,0-.13-1,.69.69,0,0,0-.56-.3v-.26l.83,0,.88,0v.26a.68.68,0,0,0-.55.3,2.56,2.56,0,0,0-.1,1v1.36a1.76,1.76,0,0,1-2,2c-1.27,0-2.1-.44-2.1-2v-1.74c0-.6,0-.93-.68-.93Z" transform="translate(-26.64 -56.93)"/><path class="cls-2" d="M113.81,131v2.24c0,.55,0,1.12.7,1.15v.26l-.88,0-.83,0v-.26c.6-.06.65-.36.65-.87v-2.92c-.23-.33-.33-.46-.73-.49v-.26l.69,0,.82,0,2.87,3.3v-1.93c0-.55,0-1.08-.69-1.11v-.26l.83,0,.87,0v.26c-.2,0-.44.07-.54.26a2.44,2.44,0,0,0-.11.89v3.49h-.36Z" transform="translate(-26.64 -56.93)"/><path class="cls-2" d="M121.29,134.4c.7,0,.68-.32.68-.91V131c0-.59,0-.94-.68-.91v-.26h2.2a2.82,2.82,0,0,1,1.92.61,2.42,2.42,0,0,1,.82,1.91,2.24,2.24,0,0,1-.71,1.73,2.67,2.67,0,0,1-1.89.56l-1.15,0-1.18,0Zm1.79-1.34a3.78,3.78,0,0,0,.07.91.58.58,0,0,0,.59.36c1.12,0,1.23-1.12,1.23-2a3.46,3.46,0,0,0-.29-1.51,1.33,1.33,0,0,0-1.28-.63.58.58,0,0,0-.29.07s0,.13,0,.17Z" transform="translate(-26.64 -56.93)"/><path class="cls-2" d="M130.51,133.39a2,2,0,0,0-.17.61c0,.36.33.38.6.4v.26l-.91,0-.83,0v-.26c.59,0,.81-.7,1-1.15l1.44-3.45H132l1.49,3.73a2.61,2.61,0,0,0,.37.7.9.9,0,0,0,.49.17v.26l-1.31,0-1.14,0v-.26c.22,0,.6,0,.6-.33a1.89,1.89,0,0,0-.14-.48l-.15-.41h-1.6Zm1.54-.57-.64-1.67-.68,1.67Z" transform="translate(-26.64 -56.93)"/><path class="cls-2" d="M141.54,131.24h-.31a1,1,0,0,0-1.06-1c-.23,0-.33,0-.4.05s0,.24,0,.48v2.73c0,.65,0,.94.73.91v.26l-1.28,0-1.28,0v-.26c.74,0,.73-.27.73-.91v-2.73a1.06,1.06,0,0,0,0-.45c-.05-.06-.19-.07-.39-.08-.71-.06-1,.38-1.1,1h-.31l0-1.38h4.67Z" transform="translate(-26.64 -56.93)"/><path class="cls-2" d="M145.35,131.05c0-.6,0-.94-.68-.93v-.26l1.19,0,1.28,0v.26c-.7,0-.68.33-.68.93v2.47c0,.59,0,.9.68.88v.26l-1.28,0-1.2,0v-.26c.7,0,.68-.32.68-.91Z" transform="translate(-26.64 -56.93)"/><path class="cls-2" d="M150.54,132.27a2.7,2.7,0,1,1,2.68,2.47A2.5,2.5,0,0,1,150.54,132.27Zm1.25,0c0,.93.25,2.18,1.42,2.18s1.46-1.1,1.46-2.1-.25-2.18-1.46-2.18S151.79,131.3,151.79,132.23Z" transform="translate(-26.64 -56.93)"/><path class="cls-2" d="M160.36,131v2.24c0,.55,0,1.12.7,1.15v.26l-.88,0-.83,0v-.26c.6-.06.65-.36.65-.87v-2.92c-.23-.33-.33-.46-.73-.49v-.26l.69,0,.82,0,2.87,3.3v-1.93c0-.55,0-1.08-.69-1.11v-.26l.83,0,.87,0v.26c-.2,0-.44.07-.54.26a2.44,2.44,0,0,0-.11.89v3.49h-.36Z" transform="translate(-26.64 -56.93)"/></svg>