<?xml version="1.0" encoding="UTF-8"?>
<svg width="50px" height="50px" viewBox="0 0 50 50" version="1.1" xmlns="http://www.w3.org/2000/svg" xmlns:xlink="http://www.w3.org/1999/xlink">
    <!-- Generator: Sketch 45.2 (43514) - http://www.bohemiancoding.com/sketch -->
    <title>em</title>
    <desc>Created with Sketch.</desc>
    <defs></defs>
    <g id="Page-1" stroke="none" stroke-width="1" fill="none" fill-rule="evenodd">
        <g id="em" fill-rule="nonzero">
            <path d="M24.826,0 C11.137,0 0,11.137 0,24.826 C0,38.514 11.137,49.652 24.826,49.652 C38.514,49.652 49.652,38.514 49.652,24.826 C49.652,11.137 38.516,0 24.826,0 Z" id="Shape" fill="#EAC9B0"></path>
            <g id="email" transform="translate(11.000000, 14.000000)" fill="#E9EDED">
                <path d="M24.2951664,0 L3.70483363,0 C1.66196611,0 0,1.60002776 0,3.56664409 L0,18.4333559 C0,20.4000249 1.66196611,22 3.70483363,22 L24.2951664,22 C26.3380339,22 28,20.3999722 28,18.4333559 L28,3.56664409 C28,1.59997511 26.3380339,0 24.2951664,0 Z M25.7378886,18.4333559 C25.7378886,19.1991749 25.090657,19.8222649 24.2951664,19.8222649 L3.70483363,19.8222649 C2.90934304,19.8222649 2.26211142,19.1991749 2.26211142,18.4333559 L2.26211142,3.56664409 C2.26211142,2.80082514 2.90934304,2.17773513 3.70483363,2.17773513 L24.2951664,2.17773513 C25.090657,2.17773513 25.7378886,2.80082514 25.7378886,3.56664409 L25.7378886,18.4333559 Z" id="Shape"></path>
                <path d="M27.7954602,2.47101752 C27.4373105,1.9715818 26.7321676,1.85009888 26.2202362,2.19970922 L13.9999453,10.5485643 L1.77970916,2.19965585 C1.26799651,1.84999213 0.562744152,1.97152843 0.20453983,2.47096415 C-0.153664492,2.97039987 -0.0291953263,3.65873192 0.482517321,4.00834227 L13.3514041,12.8004819 C13.5461469,12.9335473 13.7730461,13 14,13 C14.2268992,13 14.4538531,12.933494 14.6485959,12.8004819 L27.5174827,4.00839564 C28.0291953,3.6587853 28.1536645,2.97045324 27.7954602,2.47101752 Z" id="Shape"></path>
            </g>
        </g>
    </g>
</svg>