<?xml version="1.0" encoding="UTF-8"?>
<svg width="50px" height="50px" viewBox="0 0 50 50" version="1.1" xmlns="http://www.w3.org/2000/svg" xmlns:xlink="http://www.w3.org/1999/xlink">
    <!-- Generator: Sketch 45.2 (43514) - http://www.bohemiancoding.com/sketch -->
    <title>ig</title>
    <desc>Created with Sketch.</desc>
    <defs></defs>
    <g id="Page-1" stroke="none" stroke-width="1" fill="none" fill-rule="evenodd">
        <g id="ig" fill-rule="nonzero">
            <circle id="Oval" fill="#EAC9B0" cx="25" cy="25" r="25"></circle>
            <g id="instagram-logo" transform="translate(11.000000, 11.000000)" fill="#E9EDED">
                <g id="Layer_1">
                    <g id="Group">
                        <path d="M20.1609882,0 L7.68418824,0 C3.44712941,0 0,3.44729412 0,7.68435294 L0,20.1611529 C0,24.3983765 3.44712941,27.8455059 7.68418824,27.8455059 L20.1609882,27.8455059 C24.3983765,27.8455059 27.8455059,24.3982118 27.8455059,20.1611529 L27.8455059,7.68435294 C27.8456706,3.44729412 24.3983765,0 20.1609882,0 Z M25.3750824,20.1611529 C25.3750824,23.0360941 23.0360941,25.3749176 20.1611529,25.3749176 L7.68418824,25.3749176 C4.80941176,25.3750824 2.47058824,23.0360941 2.47058824,20.1611529 L2.47058824,7.68435294 C2.47058824,4.80957647 4.80941176,2.47058824 7.68418824,2.47058824 L20.1609882,2.47058824 C23.0359294,2.47058824 25.3749176,4.80957647 25.3749176,7.68435294 L25.3749176,20.1611529 L25.3750824,20.1611529 Z" id="Shape"></path>
                        <path d="M13.9227529,6.748 C9.96635294,6.748 6.74767059,9.96668235 6.74767059,13.9230824 C6.74767059,17.8793176 9.96635294,21.0978353 13.9227529,21.0978353 C17.8791529,21.0978353 21.0978353,17.8793176 21.0978353,13.9230824 C21.0978353,9.96668235 17.8791529,6.748 13.9227529,6.748 Z M13.9227529,18.6270824 C11.3288,18.6270824 9.21825882,16.5168706 9.21825882,13.9229176 C9.21825882,11.3288 11.3286353,9.21842353 13.9227529,9.21842353 C16.5168706,9.21842353 18.6272471,11.3288 18.6272471,13.9229176 C18.6272471,16.5168706 16.5167059,18.6270824 13.9227529,18.6270824 Z" id="Shape"></path>
                        <path d="M21.3987529,4.65310588 C20.9227529,4.65310588 20.4551529,4.84581176 20.1189882,5.18345882 C19.7811765,5.51945882 19.5869882,5.98722353 19.5869882,6.46487059 C19.5869882,6.94103529 19.7813412,7.40863529 20.1189882,7.74628235 C20.4549882,8.08228235 20.9227529,8.27663529 21.3987529,8.27663529 C21.8764,8.27663529 22.3425176,8.08228235 22.6801647,7.74628235 C23.0178118,7.40863529 23.2105176,6.94087059 23.2105176,6.46487059 C23.2105176,5.98722353 23.0178118,5.51945882 22.6801647,5.18345882 C22.3441647,4.84581176 21.8764,4.65310588 21.3987529,4.65310588 Z" id="Shape"></path>
                    </g>
                </g>
            </g>
        </g>
    </g>
</svg>